<?xml version="1.0"?>
<svg xmlns="http://www.w3.org/2000/svg" xmlns:xlink="http://www.w3.org/1999/xlink" xmlns:svgjs="http://svgjs.com/svgjs" version="1.1" width="512" height="512" x="0" y="0" viewBox="0 0 512 512" style="enable-background:new 0 0 512 512" xml:space="preserve"><g><g xmlns="http://www.w3.org/2000/svg" id="Outline"><path d="m416 112h-72v-25.441l33.569-6.714a8 8 0 0 0 6.431-7.845v-40a8 8 0 0 0 -7.117-7.951l-72-8a8 8 0 0 0 -8.883 7.951v160a40 40 0 1 0 48-39.2v-16.8h72a64.072 64.072 0 0 1 64 64v176h-224v-176a79.726 79.726 0 0 0 -32.055-64h56.055v-16h-104a79.856 79.856 0 0 0 -53.336 20.377l10.671 11.923a64 64 0 0 1 98.092 15.7h-207.427a8 8 0 0 0 -8 8v176a8 8 0 0 0 8 8h216v16h-144v8a8 8 0 0 0 8 8h176v96h-48v-80h-16v88a8 8 0 0 0 8 8h64a8 8 0 0 0 8-8v-104h192a8 8 0 0 0 8-8v-184a80.091 80.091 0 0 0 -80-80zm-56 72a24 24 0 0 1 -48 0v-151.062l56 6.222v26.281l-24 4.8v-14.241h-16v96a8 8 0 0 0 8 8 24.028 24.028 0 0 1 24 24zm-246.1 58.792-81.9 81.895v-141.041zm-65.157-66.792h189.241a64.012 64.012 0 0 1 2.016 16v18.13l-72 52zm191.257 53.867v30.82l-17.9-17.9zm-196.687 106.133 83.72-83.719 36.284 26.2a8 8 0 0 0 9.366 0l36.284-26.206 31.033 31.038v52.687z" fill="#ffffff" data-original="#000000" style=""/><path d="m280 336h16v16h-16z" fill="#ffffff" data-original="#000000" style=""/><path d="m448 336h16v16h-16z" fill="#ffffff" data-original="#000000" style=""/><path d="m392 336h16v16h-16z" fill="#ffffff" data-original="#000000" style=""/><path d="m336 336h16v16h-16z" fill="#ffffff" data-original="#000000" style=""/></g></g></svg>
