<?xml version="1.0"?>
<svg xmlns="http://www.w3.org/2000/svg" xmlns:xlink="http://www.w3.org/1999/xlink" xmlns:svgjs="http://svgjs.com/svgjs" version="1.1" width="512" height="512" x="0" y="0" viewBox="0 0 74 74" style="enable-background:new 0 0 512 512" xml:space="preserve" class=""><g><path xmlns="http://www.w3.org/2000/svg" d="M28.59,60.97h-.01a1,1,0,1,1,.01,0Z" fill="#ffffff" data-original="#000000" style=""/><path xmlns="http://www.w3.org/2000/svg" d="M46.449,59.47a.985.985,0,0,1-.56-.173,1,1,0,0,1-.266-1.388c.526-.776,1.072-1.58,1.608-2.405A1,1,0,0,1,48.908,56.6c-.544.836-1.1,1.652-1.631,2.437A1,1,0,0,1,46.449,59.47Z" fill="#ffffff" data-original="#000000" style=""/><path xmlns="http://www.w3.org/2000/svg" d="M37,72h0a1,1,0,0,1-.758-.35A162.908,162.908,0,0,1,24.584,55.8C16.8,43.716,12.85,33.74,12.85,26.15a24.15,24.15,0,0,1,48.3,0c0,4.323-1.32,9.518-3.924,15.442a1,1,0,0,1-1.831-.8c2.491-5.669,3.755-10.594,3.755-14.638a22.15,22.15,0,0,0-44.3,0C14.85,41.605,33.033,64.6,37,69.439c.914-1.107,2.576-3.168,4.576-5.856a1,1,0,0,1,1.6,1.194c-3.095,4.16-5.4,6.848-5.424,6.875A1,1,0,0,1,37,72Z" fill="#ffffff" data-original="#000000" style=""/><path xmlns="http://www.w3.org/2000/svg" d="M51.739,51.09a1,1,0,0,1-.861-1.507c.494-.839.968-1.7,1.432-2.558a1,1,0,0,1,1.76.95c-.476.881-.962,1.762-1.468,2.622A1,1,0,0,1,51.739,51.09Z" fill="#ffffff" data-original="#000000" style=""/><path xmlns="http://www.w3.org/2000/svg" d="M37,43.625A17.313,17.313,0,1,1,54.312,26.312,17.332,17.332,0,0,1,37,43.625ZM37,11A15.313,15.313,0,1,0,52.312,26.312,15.329,15.329,0,0,0,37,11Z" fill="#ffffff" data-original="#000000" style=""/><path xmlns="http://www.w3.org/2000/svg" d="M50.491,36.47a1,1,0,0,1-.768-.358,16.592,16.592,0,0,0-25.446,0,1,1,0,0,1-1.534-1.283,18.592,18.592,0,0,1,28.514,0,1,1,0,0,1-.766,1.641Z" fill="#ffffff" data-original="#000000" style=""/><path xmlns="http://www.w3.org/2000/svg" d="M37,30.167a6.584,6.584,0,1,1,6.584-6.583A6.591,6.591,0,0,1,37,30.167ZM37,19a4.584,4.584,0,1,0,4.584,4.584A4.589,4.589,0,0,0,37,19Z" fill="#ffffff" data-original="#000000" style=""/></g></svg>
