<?xml version="1.0" encoding="utf-8"?>
<!-- Generator: Adobe Illustrator 24.0.2, SVG Export Plug-In . SVG Version: 6.00 Build 0)  -->
<svg version="1.1" id="Capa_1" xmlns="http://www.w3.org/2000/svg" xmlns:xlink="http://www.w3.org/1999/xlink" x="0px" y="0px"
	 viewBox="0 0 500 500" style="enable-background:new 0 0 500 500;" xml:space="preserve">
<style type="text/css">
	.st0{fill:none;stroke:#FFFFFF;stroke-width:4;stroke-miterlimit:10;}
	.st1{fill:#FFFFFF;}
	.st2{font-family:'FranklinGothic-Medium';}
	.st3{font-size:82.8924px;}
</style>
<path class="st0" d="M128.2,183c-20.4,6.6-41.6,9.8-62.3,15c-21.1,5.3-41.8,11.8-61.9,20V105.3C4,87.5,24.7,77.7,38.5,89L145,176.6
	C139.4,179.2,133.5,181.3,128.2,183z"/>
<path class="st0" d="M99.8,213.9c20.1-4.3,44.8-10.2,64.3-21.6l71.8,59c-32.3,38.6-65.5,76.4-104.6,108.2
	c-30.6,24.9-65.3,41.2-98.9,61.3c-9.8,5.9-19.3,12.2-28.4,19.1V243.1C34.5,229.9,66.9,220.9,99.8,213.9z"/>
<path class="st0" d="M259.2,446.8c18.1-18,40.1-31.2,61.2-45.4c16.9-11.4,34.9-24.4,49.5-39.7l118.3,97.3
	c15.3,12.6,6.4,37.4-13.4,37.4H224.6C233.3,478,244.7,461.1,259.2,446.8z"/>
<path class="st0" d="M43.9,440.7c34.3-20.5,69.2-37.4,100.6-62.5c40.9-32.7,75.4-72.1,109-112.3l2,1.7l96.7,79.6
	c-6,6.2-12.6,11.9-19.3,17.1c-24.1,19-51.4,33.6-75.2,53c-27.1,22-44.6,49.3-57.2,79.1H25.1c-11.6,0-21.1-9.5-21.1-21.1v-5.9
	C16.6,458.8,29.7,449.2,43.9,440.7z"/>
<path class="st0" d="M65.9,198c-1.5,0.4-2.9,0.8-4.4,1.1c1.6-10.2,14-15.4,22.4-8.5l3.1,2.5C79.9,194.7,72.9,196.2,65.9,198z"/>
<path class="st0" d="M99.8,213.9c3.2-0.7,6.4-1.4,9.8-2.1l94,77.3c-22.4,25.2-46,49.2-72.3,70.5c-21.8,17.8-45.8,31.2-69.9,44.7
	V223.2C74,219.7,86.9,216.6,99.8,213.9z"/>
<path class="st0" d="M259.2,446.8c18.1-18,40.1-31.2,61.2-45.4c3.5-2.4,7.1-4.8,10.7-7.4l47.3,38.9c10,8.2,4.2,24.5-8.8,24.5H249.5
	C252.6,453.7,255.8,450.1,259.2,446.8z"/>
<path class="st0" d="M144.6,378.1c28-22.4,52.9-47.9,76.6-74.5l4.8,4l86.7,71.4c-18.5,12.6-37.6,24.2-55,38.3
	c-14.7,12-26.6,25.5-36.4,40.1H75.1c-7.6,0-13.8-6.2-13.8-13.8v-13C89.9,414.2,118.4,399,144.6,378.1z"/>
<path class="st0" d="M131.3,359.6c-7.1,5.7-14.3,11-21.8,16v-89.8c0-6.5,7.5-10,12.5-5.9l50.9,41.9
	C159.7,335,145.9,347.7,131.3,359.6z"/>
<path class="st0" d="M144.6,378.1c16.3-13,31.5-27.1,46.1-41.8l10.1,8.3l73.4,60.4c-5.6,3.9-11,8-16.3,12.3
	c-4.1,3.3-7.9,6.8-11.6,10.3H117.1c-4.2,0-7.7-3.4-7.7-7.6v-17.3C121.5,395.1,133.3,387.2,144.6,378.1z"/>
<text transform="matrix(0.7814 0.6417 -0.6347 0.7728 118.2012 121.0333)" class="st1 st2 st3">SHOP ROOP</text>
</svg>
