<?xml version="1.0" encoding="utf-8"?>
<!-- Generator: Adobe Illustrator 24.0.2, SVG Export Plug-In . SVG Version: 6.00 Build 0)  -->
<svg version="1.1" id="Capa_1" xmlns="http://www.w3.org/2000/svg" xmlns:xlink="http://www.w3.org/1999/xlink" x="0px" y="0px"
	 viewBox="0 0 480 480" style="enable-background:new 0 0 480 480;" xml:space="preserve">
<style type="text/css">
	.st0{fill:#FFFFFF;}
</style>
<g>
	<g>
		<path class="st0" d="M456.1,178h-39c-2.3-87.5-42.4-139.5-108.5-139.5c-40.1,0-66.9,15.4-81,32.4c-18.3-21-43.5-32.4-74.3-32.4
			c-60.8,0-93.2,36-93.2,62c0,12.2,3.8,22.4,7.4,32.3c4,10.9,8.1,22.2,8.1,37.4c0,2.8-0.2,5.3-0.4,7.8H21.3C8.4,178-2,188.4-2,201.2
			v186c0,12.8,10.5,23.3,23.3,23.3h26.3l9.1,18.2c4,7.9,12,12.9,20.8,12.9h322.5c8.9,0,16.9-4.9,20.8-12.9l9.1-18.2h26.3
			c12.8,0,23.3-10.4,23.3-23.3v-186C479.4,188.4,469,178,456.1,178L456.1,178z M168.8,348.5c37.4,0,60.2-14.6,74-40.7
			c20.4,26.4,48.8,40.7,81.3,40.7c67,0,87.7-46.6,92.2-124h16.6V364H44.6V224.5h16.1c-0.3,2.4-0.6,5-0.6,7.8
			C60.1,272.8,92,348.5,168.8,348.5L168.8,348.5z M401.8,185.7c0,80.4-10.5,121.8-38.8,138.4c16.1-28,23.3-71.6,23.3-138.4
			c0-49-10.8-89.8-30.8-118.6C385.3,86.7,401.8,127.6,401.8,185.7L401.8,185.7z M308.6,54c5.2,0,10.1,0.5,14.9,1.2
			c30,24,47.2,71.4,47.2,130.5c0,79-10.3,124.3-33.4,146.4c-4.2,0.5-8.5,0.8-13.2,0.8c-38.3,0-61.2-22.2-74.2-42
			c9.1-27,12-62.7,12-105.3c0-42.5-8.7-76.9-24.7-101.9C247.6,69.3,271.2,54,308.6,54z M246.5,185.7c0,80.4-10.5,121.8-38.8,138.4
			c16.1-28,23.3-71.6,23.3-138.4c0-49-10.8-89.8-30.8-118.6C230,86.7,246.5,127.6,246.5,185.7L246.5,185.7z M153.3,54
			c5.2,0,10.1,0.5,14.9,1.2c30,24,47.2,71.4,47.2,130.5c0,79-10.3,124.3-33.4,146.4c-4.2,0.5-8.5,0.8-13.2,0.8
			c-65,0-93.2-66.7-93.2-100.8c0-9.1,2.8-15.3,6.3-23.1c4.3-9.7,9.3-20.7,9.3-38.9c0-18-4.8-31.1-9.1-42.7c-3.5-9.4-6.5-17.6-6.5-27
			C75.6,81.5,103.3,54,153.3,54L153.3,54z M406.9,421.7c-1.3,2.6-4,4.3-6.9,4.3H77.4c-3,0-5.6-1.6-6.9-4.3l-5.6-11.2h347.6
			L406.9,421.7z M463.9,387.3c0,4.3-3.5,7.8-7.8,7.8H21.3c-4.3,0-7.8-3.5-7.8-7.8v-186c0-4.3,3.5-7.8,7.8-7.8h50.4
			c-1.2,3.2-2.5,6.3-3.9,9.3c-0.9,2-1.8,4.1-2.7,6.2H29v170.5h419.3V209h-31.4c0.1-5,0.2-10.2,0.3-15.5h38.9c4.3,0,7.8,3.5,7.8,7.8
			L463.9,387.3L463.9,387.3z"/>
		<path class="st0" d="M113.5,151.1c6.5-6.5,11.7-13.8,15.6-21.8c6.7,1.7,13.6,2.5,20.5,2.5c13.1,0,26.3-3,38.1-8.9l-6.9-13.9
			c-14.2,7.1-30.7,9-46.1,5.7c1.9-7.1,3-14.4,3-22h-15.5c0,17.9-7,34.8-19.7,47.5l-1.3,1.3l11,11L113.5,151.1z"/>
		<path class="st0" d="M113.2,216.9l2.6,15.3c47.4-7.9,68.6-24.6,68.6-54.2h-15.5C168.8,192.6,162.2,208.7,113.2,216.9z"/>
		<path class="st0" d="M127.3,242.4l-11.4-2.3l-3.1,15.2l11.4,2.3c15.7,3.1,29.2,12.2,38.1,25.4l12.9-8.6
			C164.1,257.7,147.1,246.4,127.3,242.4z"/>
		<path class="st0" d="M284.3,151.1c6.5-6.5,11.7-13.8,15.6-21.8c6.8,1.7,13.7,2.5,20.6,2.5c10.3,0,20.5-1.9,30.3-5.5l-5.5-14.5
			c-12.7,4.8-26.6,5.8-39.8,2.8c1.9-7.1,3-14.4,3-22H293c0,17.9-7,34.8-19.7,47.5l-1.3,1.3l11,11L284.3,151.1z"/>
		<path class="st0" d="M276.2,216.9l2.6,15.3c47.4-7.9,68.6-24.6,68.6-54.2h-15.5C331.9,192.6,325.3,208.7,276.2,216.9L276.2,216.9z
			"/>
		<path class="st0" d="M290.4,242.4l-11.4-2.3l-3.1,15.2l11.4,2.3c15.7,3.1,29.2,12.2,38.1,25.4l12.9-8.6
			C327.2,257.7,310.1,246.4,290.4,242.4z"/>
	</g>
</g>
</svg>
